<?xml version="1.0" encoding="UTF-8" standalone="no"?><!DOCTYPE svg PUBLIC "-//W3C//DTD SVG 1.1//EN" "http://www.w3.org/Graphics/SVG/1.1/DTD/svg11.dtd"><svg width="100%" height="100%" viewBox="0 0 48 48" version="1.1" xmlns="http://www.w3.org/2000/svg" xmlns:xlink="http://www.w3.org/1999/xlink" xml:space="preserve" xmlns:serif="http://www.serif.com/" style="fill-rule:evenodd;clip-rule:evenodd;stroke-linecap:square;stroke-miterlimit:1.5;"><g><g><g><g id="Capa2"></g><path d="M18.071,11.452c0.801,0.216 0.27,2.741 0.119,2.987c-0.628,1.025 -1.068,0.942 -2.202,1.603l-2.034,-1.901c-2.047,1.299 -3.815,2.969 -5.201,4.913l1.944,1.984c-0.888,1.354 -1.55,2.831 -1.963,4.375l-2.862,0.059c-0.515,2.294 -0.556,4.654 -0.121,6.948l2.86,0.059c0.36,1.545 0.971,3.021 1.812,4.375l-2.014,1.984c1.319,1.945 3.029,3.614 5.031,4.913l2.1,-1.9c1.396,0.83 2.923,1.441 4.525,1.812l0.014,2.747c2.38,0.456 4.839,0.456 7.235,-0l0.11,-2.747c1.615,-0.371 3.163,-0.982 4.588,-1.812l2.034,1.9c2.047,-1.299 3.815,-2.968 5.201,-4.913l-1.944,-1.984c0.888,-1.354 1.55,-2.83 1.963,-4.375l2.862,-0.059c0.515,-2.294 0.556,-4.654 0.121,-6.948l-2.86,-0.059c-0.36,-1.544 -0.971,-3.021 -1.812,-4.375l2.014,-1.984c-1.319,-1.944 -3.029,-3.614 -5.031,-4.913l-2.1,1.901c-1.157,-0.688 -1.587,-1.175 -2.366,-1.874c-1.205,-1.082 -1.246,-2.751 -0.837,-3.368" style="fill:none;stroke:#023047;stroke-width:1.2px;"/></g></g><g><path d="M22.942,19.559c-0,0 -2.028,-7.411 3.343,-13.105c1.5,-1.591 4.202,-3.605 6.887,-3.605" style="fill:none;stroke:#023047;stroke-width:1.2px;stroke-linecap:round;stroke-linejoin:round;"/><path d="M33.172,2.815c0,-0 -0.288,4.401 2.154,6.157c2.441,1.755 7.983,0.032 8.664,-0.443c0.682,-0.474 -0.831,-5.783 -4.968,-7.083c-4.07,-1.28 -5.85,1.369 -5.85,1.369Z" style="fill:none;stroke:#023047;stroke-width:1.2px;stroke-linecap:round;stroke-linejoin:round;"/><path d="M33.172,2.849c0,-0 4.743,1.122 6.759,3.198" style="fill:none;stroke:#023047;stroke-width:0.8px;stroke-linecap:round;stroke-linejoin:round;"/><path d="M35.326,3.809c-0,-0 -0.278,1.421 0.318,2.238" style="fill:none;stroke:#023047;stroke-width:0.8px;stroke-linecap:round;stroke-linejoin:round;"/><path d="M37.35,4.087c0,0 1.729,-1 3.035,-0.32" style="fill:none;stroke:#023047;stroke-width:0.8px;stroke-linecap:round;stroke-linejoin:round;"/><path d="M38.597,5.206c0,-0 -1.219,0.195 0.058,1.556" style="fill:none;stroke:#023047;stroke-width:0.8px;stroke-linecap:round;stroke-linejoin:round;"/><path d="M22.932,12.918c0.562,-2.02 -1.771,-6.176 -7.202,-2.859" style="fill:none;stroke:#023047;stroke-width:1.2px;stroke-linecap:round;stroke-linejoin:round;"/><path d="M3.917,7.253c0,0 2.272,5.791 5.723,5.833c2.271,0.027 6.132,-0.733 6.155,-4.151c0.023,-3.417 -4.156,-3.281 -5.7,-2.927c-1.545,0.354 -4.02,1.58 -6.178,1.245Z" style="fill:none;stroke:#023047;stroke-width:1.2px;stroke-linecap:round;stroke-linejoin:round;"/><path d="M15.48,9.324c0,-0 -2.498,1.56 -7.857,0.149" style="fill:none;stroke:#023047;stroke-width:0.8px;stroke-linecap:round;stroke-linejoin:round;"/><path d="M13.459,9.743c0,0 0.295,-1.822 -2.157,-1.74" style="fill:none;stroke:#023047;stroke-width:0.8px;stroke-linecap:round;stroke-linejoin:round;"/><path d="M11.574,10.44c0,-0 0.318,0.918 -2.021,1.361" style="fill:none;stroke:#023047;stroke-width:0.8px;stroke-linecap:round;stroke-linejoin:round;"/></g></g><g id="cerebro"><path d="M27.346,27.602c0,0 2.053,2.022 4.339,1.011c2.285,-1.011 1.312,-2.821 1.312,-2.821" style="fill:none;stroke:#023047;stroke-width:0.97px;stroke-linecap:round;stroke-linejoin:round;"/><path d="M33.623,23.346c-0,0 1.113,-1.689 -0.626,-2.762c-2.722,-1.681 -4.057,1.055 -4.057,1.055" style="fill:none;stroke:#023047;stroke-width:0.97px;stroke-linecap:round;stroke-linejoin:round;"/><path d="M25.51,36.998l0,-17.096c0,0 0.177,-1.049 2.68,-0.998c2.084,0.043 2.746,0.84 3.076,1.239" style="fill:none;stroke:#023047;stroke-width:0.97px;stroke-linecap:round;stroke-linejoin:round;"/><path d="M28.388,33.884c-0,-0 -2.878,0.134 -2.878,2.518c0,1.729 0.942,3.359 3.701,3.441c2.535,0.075 3.379,-1.712 3.379,-1.712c-0,-0 2.341,-0 2.596,-1.563c0.254,-1.562 0.153,-1.883 0.153,-1.883c-0,0 3.165,-1.138 1.495,-3.571" style="fill:none;stroke:#023047;stroke-width:0.97px;stroke-linecap:round;stroke-linejoin:round;"/><path d="M33.964,31.841c0,-0 2.742,0.46 3.467,-1.976c0.726,-2.435 -1.431,-2.543 -1.431,-2.543c0,0 2.008,-3.385 -2.647,-3.974c-3.67,-0.465 -3.767,2.884 -3.767,2.884" style="fill:none;stroke:#023047;stroke-width:0.97px;stroke-linecap:round;stroke-linejoin:round;"/><path d="M32.538,30.433c0,-0 -1.063,0.35 -1.908,-0.074c-0.869,-0.435 -0.687,-1.463 -0.687,-1.463" style="fill:none;stroke:#023047;stroke-width:0.97px;stroke-linecap:round;stroke-linejoin:round;"/><path d="M28.721,31.859c-0,-0 1.345,-0.268 2.69,0.688c0.965,0.686 0.822,2.178 0.822,2.178" style="fill:none;stroke:#023047;stroke-width:0.97px;stroke-linecap:round;stroke-linejoin:round;"/><path d="M29.586,37.77c0,-0 -0.111,-2.003 1.963,-2.524c2.074,-0.521 1.654,0.08 1.654,0.08" style="fill:none;stroke:#023047;stroke-width:0.97px;stroke-linecap:round;stroke-linejoin:round;"/></g><path d="M22.846,38.583l0,-0c-3.466,-1.936 -7.627,-4.841 -9.244,-7.745c-2.312,-3.872 -2.312,-7.745 -0,-9.681c2.311,-1.936 6.933,-1.936 9.244,1.936l0,0l0,15.49Z" style="fill:none;stroke:#023047;stroke-width:0.97px;stroke-linecap:round;stroke-linejoin:round;"/></svg>